<?xml version="1.0" encoding="utf-8"?>
<!-- Generator: Adobe Illustrator 16.0.0, SVG Export Plug-In . SVG Version: 6.00 Build 0)  -->
<!DOCTYPE svg PUBLIC "-//W3C//DTD SVG 1.1//EN" "http://www.w3.org/Graphics/SVG/1.1/DTD/svg11.dtd">
<svg version="1.1" id="图层_1" xmlns="http://www.w3.org/2000/svg" xmlns:xlink="http://www.w3.org/1999/xlink" x="0px" y="0px"
	 width="200.195px" height="200px" viewBox="0 0 200.195 200" enable-background="new 0 0 200.195 200" xml:space="preserve">
<path fill="#1296DB" d="M164.053,76.042c0-35.14-28.721-63.637-64.173-63.637c-35.441,0-64.172,28.497-64.172,63.637
	c0,11.61,3.185,22.452,8.654,31.825h-0.069l55.581,79.553l55.604-79.553h-0.074C160.891,98.495,164.053,87.653,164.053,76.042
	 M99.885,107.854c-17.718,0-32.086-14.243-32.086-31.818c0-17.564,14.368-31.818,32.086-31.818
	c17.735,0,32.086,14.254,32.086,31.818C131.972,93.612,117.62,107.854,99.885,107.854"/>
<circle fill="none" stroke="#309AD4" stroke-miterlimit="10" cx="101.058" cy="98.96" r="91.46"/>
</svg>
